# xmcd
#
# Track frame offsets: 
#        150
#        5337
#        24391
#        38114
#        54131
#        70345
#        85911
#        113215
#        135991
#        153165
#        171109
#        191384
#
# Disc length: 2784 seconds
#
# Revision: 0
# Processed by: cddbd v1.5.2PL0 Copyright (c) Steve Scherf et al.
# Submitted via: ExactAudioCopy v1.3
#
DISCID=870ade0c
DTITLE=The Feedback - Home Made
DYEAR=2016
DGENRE=Blues
TTITLE0=Work Song (Hey Mama)
TTITLE1=Hey Mama
TTITLE2=Not My Kind
TTITLE3=Low Tide
TTITLE4=French Fries
TTITLE5=Jurassic Mind
TTITLE6=Crumpled Sheet
TTITLE7=Monday Morning
TTITLE8=Since My Baby Left Me
TTITLE9=Earliest Sign of a Flu
TTITLE10=Twenty Cents
TTITLE11=We Can Have
EXTD=
EXTT0=
EXTT1=
EXTT2=
EXTT3=
EXTT4=
EXTT5=
EXTT6=
EXTT7=
EXTT8=
EXTT9=
EXTT10=
EXTT11=
PLAYORDER=
